<svg width="40" height="40" viewBox="0 0 40 40" fill="none" xmlns="http://www.w3.org/2000/svg">
<path d="M17.55 17.8291C17.3833 17.2991 17.2333 16.7863 17.0667 16.2564C16.9 15.7265 16.75 15.2308 16.6167 14.735C16.4833 14.2564 16.3667 13.812 16.25 13.4017H16.2167C16.0667 14.1368 15.8833 14.8718 15.65 15.6068C15.4 16.4273 15.15 17.282 14.8833 18.1368C14.65 19.0085 14.4 19.812 14.15 20.5299H18.3833C18.2833 20.1692 18.15 19.7436 18 19.2974C17.85 18.8376 17.7 18.3419 17.55 17.8291ZM32.9167 0H7.08333C3.16667 0 0 3.24786 0 7.26496V32.735C0 36.7521 3.16667 40 7.08333 40H32.9167C36.8333 40 40 36.7521 40 32.735V7.26496C40 3.24786 36.8333 0 32.9167 0ZM24.5 28.2564H21.015C20.9 28.2735 20.7833 28.188 20.75 28.0684L19.3833 24H13.1833L11.9167 28.0171C11.8833 28.1709 11.75 28.2735 11.6 28.2581H8.46667C8.28333 28.2581 8.23333 28.1538 8.28333 27.9504L13.65 12.1026C13.7 11.9316 13.75 11.7436 13.8167 11.5385C13.8833 11.1795 13.9167 10.8034 13.9167 10.4274C13.9 10.3419 13.9667 10.2564 14.05 10.2393H18.3667C18.5 10.2393 18.5667 10.2906 18.5833 10.3761L24.6667 27.9829C24.7167 28.1692 24.6667 28.2564 24.5 28.2564ZM30.1667 28C30.1667 28.188 30.1017 28.2735 29.9517 28.2735H26.6833C26.5167 28.2735 26.4333 28.1692 26.4333 28V14.8376C26.4333 14.6667 26.5017 14.5983 26.6517 14.5983H29.9517C30.1017 14.5983 30.1667 14.6838 30.1667 14.8376V28ZM29.8183 12.5641C29.6215 12.7691 29.3842 12.9286 29.1223 13.0318C28.8604 13.135 28.58 13.1795 28.3 13.1624C27.75 13.1795 27.2167 12.9573 26.815 12.5641C26.4332 12.1359 26.2298 11.5714 26.2483 10.9915C26.2317 10.4103 26.4483 9.86325 26.8467 9.47009C27.25 9.07692 27.7833 8.87179 28.3333 8.87179C28.985 8.87179 29.4817 9.07692 29.85 9.47009C30.2167 9.88034 30.4167 10.4273 30.4 10.9915C30.4167 11.5726 30.2167 12.1368 29.8183 12.5641Z" fill="#7F6AFF"/>
</svg>
