<svg width="40" height="40" viewBox="0 0 40 40" fill="none" xmlns="http://www.w3.org/2000/svg">
<path d="M19.58 19H15.44V12.38H20.38C22.9 12.38 24.3 13.5 24.3 15.56C24.3 17.8 22.64 19 19.58 19ZM20.32 21.26H15.44V28.54H20.56C23.68 28.54 25.32 27.28 25.32 24.88C25.32 22.48 23.62 21.26 20.32 21.26ZM40 6.62V33.38C40 37 37 40 33.38 40H6.62C3 40 0 37 0 33.38V6.62C0 3 3 0 6.62 0H33.38C37 0 40 3 40 6.62ZM28 25C28 22.24 26.16 20.26 23.34 19.9V19.78C25.34 19.42 26.92 17.42 26.92 15.26C26.92 12.16 24.52 10.1 21 10.1H12.86V30.82H20.94C25.36 30.82 28 28.64 28 25Z" fill="#7F6AFF"/>
</svg>
