<svg width="40" height="40" viewBox="0 0 40 40" fill="none" xmlns="http://www.w3.org/2000/svg">
<rect width="40" height="40" rx="10" fill="#7F6AFF"/>
<path fill-rule="evenodd" clip-rule="evenodd" d="M15.4951 17.009C15.0365 17.009 14.5823 17.0993 14.1586 17.2747C13.7349 17.4501 13.3499 17.7072 13.0256 18.0313C12.7013 18.3554 12.4441 18.7402 12.2685 19.1636C12.093 19.5871 12.0027 20.041 12.0027 20.4993C12.0027 20.9577 12.093 21.4116 12.2685 21.835C12.4441 22.2585 12.7013 22.6433 13.0256 22.9674C13.3499 23.2915 13.7349 23.5486 14.1586 23.724C14.5823 23.8994 15.0365 23.9897 15.4951 23.9897H18.9875V20.5696C18.987 20.5227 18.987 20.4759 18.9875 20.4291V17.009H15.4951ZM18.9875 14.9821H15.4951C14.5687 14.9821 13.6802 14.6143 13.0251 13.9596C12.3701 13.3049 12.002 12.4169 12.002 11.491C12.002 10.5651 12.3701 9.67719 13.0251 9.0225C13.6802 8.3678 14.5687 8 15.4951 8H18.9875V14.9821ZM21.0156 8V14.9821H24.508C25.4226 14.9641 26.2936 14.5884 26.934 13.9356C27.5744 13.2829 27.9331 12.4052 27.9331 11.491C27.9331 10.5769 27.5744 9.69916 26.934 9.04643C26.2936 8.39369 25.4226 8.01798 24.508 8H21.0156ZM24.508 17.0076C23.5913 17.0075 22.7113 17.3676 22.0579 18.0103C21.4046 18.6529 21.0302 19.5265 21.0156 20.4426V20.5547C21.0268 21.2425 21.2411 21.9117 21.6316 22.4782C22.0221 23.0446 22.5714 23.4831 23.2104 23.7386C23.8495 23.9941 24.5499 24.0552 25.2235 23.9142C25.8972 23.7732 26.5142 23.4364 26.9969 22.946C27.4797 22.4557 27.8067 21.8338 27.9369 21.1583C28.0671 20.4828 27.9947 19.784 27.7288 19.1495C27.4629 18.515 27.0153 17.9732 26.4423 17.5921C25.8693 17.2111 25.1963 17.0077 24.508 17.0076ZM15.4951 26.0166C14.8041 26.0163 14.1284 26.2209 13.5537 26.6044C12.979 26.9879 12.531 27.5331 12.2663 28.1711C12.0017 28.8091 11.9323 29.5113 12.067 30.1887C12.2016 30.8661 12.5343 31.4884 13.0228 31.9768C13.5114 32.4653 14.1339 32.798 14.8117 32.9328C15.4894 33.0676 16.192 32.9986 16.8305 32.7343C17.4689 32.4701 18.0147 32.0226 18.3986 31.4483C18.7826 30.8741 18.9875 30.1989 18.9875 29.5083V26.0166H15.4951Z" fill="#0E111E"/>
</svg>
