<svg width="40" height="40" viewBox="0 0 40 40" fill="none" xmlns="http://www.w3.org/2000/svg">
<rect width="40" height="40" rx="10" fill="#7F6AFF"/>
<path d="M33.3754 17.9309C31.995 19.0842 30.2136 19.6432 28.4217 19.4854C26.6298 19.3276 24.9736 18.4658 23.816 17.089C21.399 14.2103 21.7792 9.90584 24.6443 7.52957L25.3368 7.01358C24.2133 8.23178 23.5716 9.81728 23.5317 11.474C23.4917 13.1307 24.0561 14.7453 25.1195 16.0163C27.3329 18.6505 31.1621 19.1665 34 17.3334L33.3754 17.9309ZM30.9584 23.4845C29.936 24.3466 28.7534 24.9983 27.4786 25.4023C26.2037 25.8062 24.8616 25.9543 23.5293 25.8383C22.1971 25.7222 20.9008 25.3442 19.715 24.7259C18.5292 24.1076 17.4771 23.2612 16.6193 22.2353C12.9937 17.9309 13.564 11.5081 17.8685 7.86904L19.1177 7C17.5047 8.82717 16.601 11.1726 16.5711 13.6097C16.5412 16.0469 17.3871 18.4138 18.9548 20.28C22.2408 24.1635 27.8353 25.0189 32.0582 22.4254L30.9584 23.4845ZM29.424 30.111C23.395 35.1758 14.3924 34.3882 9.32749 28.3457C4.27621 22.3168 5.06378 13.3005 11.0927 8.26282L12.6 7.1901C7.83384 12.35 7.5351 20.4022 12.1926 25.9559C16.8501 31.496 24.8344 32.6094 30.7683 28.821L29.424 30.111Z" fill="#0E111E"/>
</svg>
