<svg width="40" height="40" viewBox="0 0 40 40" fill="none" xmlns="http://www.w3.org/2000/svg">
<rect width="40" height="40" rx="10" fill="#7F6AFF"/>
<path d="M20 11C16.2667 11 13.9333 12.8889 13 16.6667C14.4 14.7778 16.0333 14.0694 17.9 14.5417C18.9652 14.8108 19.7258 15.5924 20.5693 16.4589C21.9425 17.8685 23.5303 19.5 27 19.5C30.7333 19.5 33.0667 17.6111 34 13.8333C32.6 15.7222 30.9667 16.4306 29.1 15.9583C28.0348 15.6892 27.2742 14.9076 26.4307 14.0411C25.0587 12.6315 23.4708 11 20 11ZM13 19.5C9.26667 19.5 6.93333 21.3889 6 25.1667C7.4 23.2778 9.03333 22.5694 10.9 23.0417C11.9652 23.3108 12.7258 24.0924 13.5693 24.9589C14.9425 26.3685 16.5303 28 20 28C23.7333 28 26.0667 26.1111 27 22.3333C25.6 24.2222 23.9667 24.9306 22.1 24.4583C21.0348 24.1892 20.2742 23.4076 19.4307 22.5411C18.0587 21.1315 16.4708 19.5 13 19.5Z" fill="#0E111E"/>
</svg>
