<svg width="40" height="40" viewBox="0 0 40 40" fill="none" xmlns="http://www.w3.org/2000/svg">
<path d="M17.4328 36.7664L13.6203 35.6601C13.2203 35.5476 12.9953 35.1289 13.1078 34.7289L21.6391 5.34135C21.7516 4.94135 22.1703 4.71635 22.5703 4.82885L26.3828 5.9351C26.7828 6.0476 27.0078 6.46635 26.8953 6.86635L18.3641 36.2539C18.2453 36.6539 17.8328 36.8851 17.4328 36.7664ZM10.3078 29.7539L13.0266 26.8539C13.3141 26.5476 13.2953 26.0601 12.9766 25.7789C9.97339 23.137 9.97339 18.4582 12.9766 15.8164C13.2953 15.5351 13.3203 15.0476 13.0266 14.7414L10.3078 11.8414C10.0266 11.5414 9.55156 11.5226 9.24531 11.8101L0.239062 20.2476C-0.0796875 20.5414 -0.0796875 21.0476 0.239062 21.3414L9.24531 29.7851C9.55156 30.0726 10.0266 30.0601 10.3078 29.7539ZM30.7578 29.7914L39.764 21.3476C40.0828 21.0539 40.0828 20.5476 39.764 20.2539L30.7578 11.8039C30.4578 11.5226 29.9828 11.5351 29.6953 11.8351L26.9766 14.7351C26.6891 15.0414 26.7078 15.5289 27.0266 15.8101C30.0287 18.4544 30.0304 23.1364 27.0266 25.7789C26.7078 26.0601 26.6828 26.5476 26.9766 26.8539L29.6953 29.7539C29.9766 30.0601 30.4516 30.0726 30.7578 29.7914Z" fill="#7F6AFF"/>
</svg>
