<svg width="40" height="40" viewBox="0 0 40 40" fill="none" xmlns="http://www.w3.org/2000/svg">
<path d="M7.30012 14.8321C9.58368 17.2361 13.4154 17.2363 15.6992 14.8326L18.2471 12.151C18.9436 11.418 18.9436 10.2679 18.2472 9.53487C17.4985 8.74674 16.2422 8.74674 15.4935 9.53487L13.2082 11.9405C13.1645 11.9865 13.1126 12.0231 13.0555 12.048C12.9984 12.0729 12.9372 12.0858 12.8754 12.0858C12.8136 12.0858 12.7523 12.0729 12.6952 12.048C12.6381 12.0231 12.5863 11.9865 12.5426 11.9405L11.877 11.2399C11.693 11.0461 11.693 10.7324 11.877 10.5392L13.5415 8.78711C14.6611 7.60869 14.6612 5.75983 13.5419 4.58124C12.8062 3.80688 11.614 3.80688 10.8783 4.58124L5.55189 10.188C4.81683 10.9624 4.81624 12.2173 5.55189 12.9917L7.30012 14.8321ZM34.5645 11.953C35.6783 10.7805 35.6777 8.87991 34.5645 7.70743L31.8778 4.87936C30.7639 3.70688 28.9578 3.70688 27.8433 4.87936C26.3122 6.49074 26.312 9.01925 27.843 10.6308L29.0994 11.9533C30.5853 13.5175 33.0786 13.5173 34.5645 11.953ZM27.2998 12.888C25.3788 10.8661 22.1557 10.866 20.2346 12.8879L10.1137 23.5401C7.51969 26.2702 5.80375 29.7154 5.18748 33.4306L5.0193 34.4444C4.86908 35.35 5.61838 36.1388 6.47931 35.9794C10.6257 35.2141 14.4232 33.1554 17.3273 30.0984L27.3 19.6004C29.0867 17.7196 29.0867 14.7687 27.2998 12.888ZM34.8483 27.0089C33.7621 25.8656 31.9397 25.8656 30.8536 27.0089L29.1887 28.7614C29.0047 28.9551 28.7066 28.9551 28.5231 28.7614L27.8576 28.0608C27.6741 27.867 27.6741 27.5533 27.8576 27.3602L30.2765 24.814C30.9732 24.0806 30.9732 22.9299 30.2765 22.1965C29.5274 21.408 28.2705 21.408 27.5214 22.1964L24.6994 25.1665C22.575 27.4023 22.575 30.9105 24.6993 33.1463L26.8583 35.4188C27.5939 36.1931 28.7862 36.1931 29.5218 35.4188L34.8483 29.8126C35.5839 29.0383 35.5839 27.7833 34.8483 27.0089Z" fill="#7F6AFF"/>
</svg>
