<svg width="40" height="40" viewBox="0 0 40 40" fill="none" xmlns="http://www.w3.org/2000/svg">
<path d="M12.5375 12.6745C11.9098 12.8519 11.335 13.1801 10.8632 13.6306C10.3914 14.081 10.0369 14.64 9.8306 15.2589L4 32.75L4.91812 33.6681L14.2999 24.2863C14.1131 23.8951 14 23.4626 14 23.0001C14 21.3432 15.3431 20.0001 16.9999 20.0001C18.6568 20.0001 19.9999 21.3432 19.9999 23.0001C19.9999 24.6569 18.6568 26 16.9999 26C16.5374 26 16.1049 25.8869 15.7137 25.7001L6.33186 35.0819L7.24998 36L24.7411 30.1694C25.36 29.9631 25.919 29.6086 26.3694 29.1368C26.8199 28.665 27.1481 28.0902 27.3255 27.4625L29.9999 18.0001L21.9999 10.0001L12.5375 12.6745ZM35.1211 8.63576L31.3642 4.8789C30.1924 3.70703 28.2918 3.70703 27.1199 4.8789L23.5855 8.41326L31.5867 16.4145L35.1211 12.8801C36.293 11.7082 36.293 9.80825 35.1211 8.63576Z" fill="#7F6AFF"/>
</svg>
