<svg width="40" height="40" viewBox="0 0 40 40" fill="none" xmlns="http://www.w3.org/2000/svg">
<rect width="40" height="40" rx="10" fill="#7F6AFF"/>
<path d="M19.5 8C12.6125 8 7 13.6125 7 20.5C7 27.3875 12.6125 33 19.5 33C26.3875 33 32 27.3875 32 20.5C32 13.6125 26.3875 8 19.5 8ZM8.2625 20.5C8.2625 18.875 8.6125 17.325 9.2375 15.925L14.6 30.6125C10.85 28.7875 8.2625 24.95 8.2625 20.5ZM19.5 31.7375C18.4 31.7375 17.3375 31.575 16.325 31.275L19.7 21.475L23.15 30.9375C23.175 30.9875 23.2 31.05 23.225 31.0875C22.0625 31.5125 20.8125 31.7375 19.5 31.7375ZM21.05 15.225C21.725 15.1875 22.3375 15.1125 22.3375 15.1125C22.9375 15.0375 22.875 14.15 22.2625 14.1875C22.2625 14.1875 20.4375 14.325 19.2625 14.325C18.1625 14.325 16.3 14.1875 16.3 14.1875C15.7 14.1625 15.625 15.0875 16.2375 15.125C16.2375 15.125 16.8125 15.2 17.4125 15.2375L19.1625 20.0375L16.7 27.4125L12.6125 15.225C13.2875 15.2 13.9 15.125 13.9 15.125C14.5 15.05 14.4375 14.1625 13.825 14.2C13.825 14.2 12 14.3375 10.825 14.3375C10.6125 14.3375 10.3625 14.3375 10.1 14.325C12.125 11.275 15.575 9.2625 19.5 9.2625C22.425 9.2625 25.0875 10.375 27.0875 12.2125C27.0375 12.2125 26.9875 12.2 26.9375 12.2C25.8375 12.2 25.05 13.1625 25.05 14.2C25.05 15.125 25.5875 15.9125 26.15 16.8375C26.575 17.5875 27.075 18.55 27.075 19.9375C27.075 20.9 26.7 22.0125 26.225 23.575L25.1 27.325L21.05 15.225ZM29.3625 15.1125C30.7665 17.682 31.1119 20.6982 30.3251 23.5186C29.5382 26.339 27.6814 28.7408 25.15 30.2125L28.5875 20.2875C29.225 18.6875 29.4375 17.4 29.4375 16.2625C29.4375 15.85 29.4125 15.4625 29.3625 15.1125Z" fill="#0E111E"/>
</svg>
